<?xml version="1.0" encoding="utf-8" ?><svg xmlns="http://www.w3.org/2000/svg" xmlns:xlink="http://www.w3.org/1999/xlink" width="1120" height="1108" viewBox="0 0 1120 1108"><defs><linearGradient id="gradient_0" gradientUnits="userSpaceOnUse" x1="566.65125" y1="558.13171" x2="630.96149" y2="219.45892"><stop offset="0" stop-color="#005BAF"/><stop offset="1" stop-color="#008FDC"/></linearGradient></defs><path fill="url(#gradient_0)" d="M654.594 199.771C665.386 203.221 675.384 207.877 685.49 212.973C735.236 238.103 775.69 278.419 800.99 328.08C810.096 345.769 820.68 371.833 823.975 391.616C833.113 436.422 831.782 487.591 813.43 530.32C804.888 550.207 778.734 586.209 760.782 597.956C762.697 591.04 765.293 583.917 766.629 576.881C781.017 501.101 686.232 479.311 633.183 461.995C584.122 445.979 528.89 434.019 497.89 389.284C486.599 372.989 479.521 345.338 483.359 326.14C483.329 321.769 483.415 316.76 483.098 312.454C477.132 324.541 474.802 338.407 471.059 351.345C469.75 355.868 466.63 363.929 466.21 368.184C464.814 382.301 465.144 398.302 463.35 412.259C462.674 407.881 462.431 405.952 462.342 401.686C462.23 396.273 463.365 385.381 462.263 380.513C457.717 395.307 456.528 399.638 457.235 415.266C457.76 426.888 455.79 439.742 457.445 452.012C458.817 462.182 461.995 472.316 464.62 482.305C465.711 486.457 466.005 490.749 467.149 494.871C470.99 503.581 474.22 512.633 478.275 521.201C480.865 526.675 483.922 529.131 484.263 535.589L484.304 537.2C463.257 536.258 446.936 537.991 425.472 532.206C395.56 524.145 367.084 508.269 351.024 480.933C348.189 475.184 345.235 466.397 344.424 460.044C343.326 453.637 342.861 442.78 343.674 436.193C345.368 428.432 346.58 420.641 348.287 412.847C349.451 407.535 351.384 401.732 352.323 396.553C369.872 341.955 409.055 294.796 455.469 261.843C461.166 257.798 467.206 254.09 473.055 250.248C476.612 247.971 480.659 245.85 484.389 243.803C512.563 227.057 553.191 215.263 585.191 209.382C594.321 208.206 601.303 205.502 609.685 203.951C623.471 201.401 640.601 199.508 654.594 199.771Z"/><defs><linearGradient id="gradient_1" gradientUnits="userSpaceOnUse" x1="680.71124" y1="342.62473" x2="736.12701" y2="241.56677"><stop offset="0" stop-color="#0091DB"/><stop offset="1" stop-color="#00C0FB"/></linearGradient></defs><path fill="url(#gradient_1)" d="M654.594 199.771C665.386 203.221 675.384 207.877 685.49 212.973C735.236 238.103 775.69 278.419 800.99 328.08C810.096 345.769 820.68 371.833 823.975 391.616C802.344 390.745 809.104 382.704 795.581 375.249C792.635 373.625 783.457 374.689 780.108 373.651C771.535 370.995 763.93 365.315 755.258 362.717C749.682 360.531 739.959 360.458 734.676 358.27C719.147 351.838 704.219 348.877 687.953 345.214C684.116 344.35 678.403 340.137 674.15 338.624C669.913 337.118 663.615 334.396 659.719 331.769C652.156 323.57 642.431 315.245 633.973 309.657C629.785 306.89 621.461 291.696 617.349 287.746C616.281 286.72 614.024 277.805 612.608 276.248C609.135 271.017 605.047 266.536 601.704 261.219C593.512 248.191 588.731 233.313 585.254 218.42C584.98 217.245 585.15 210.899 585.191 209.382C594.321 208.206 601.303 205.502 609.685 203.951C623.471 201.401 640.601 199.508 654.594 199.771Z"/><path fill="#008FEB" d="M352.323 396.553C355.629 397.996 359.128 402.344 360.584 405.563C364.181 413.518 358.067 419.86 356.438 426.89C354.911 433.475 357.869 442.051 354.59 448.564C351.234 454.767 347.988 452.64 344.424 460.044C343.326 453.637 342.861 442.78 343.674 436.193C345.368 428.432 346.58 420.641 348.287 412.847C349.451 407.535 351.384 401.732 352.323 396.553Z"/><path fill="#0058A5" d="M484.717 299.464C485.33 304.89 484.787 313.085 485.241 316.529C484.91 319.733 484.509 323.111 483.359 326.14C483.329 321.769 483.415 316.76 483.098 312.454C477.132 324.541 474.802 338.407 471.059 351.345C469.75 355.868 466.63 363.929 466.21 368.184C464.814 382.301 465.144 398.302 463.35 412.259C462.674 407.881 462.431 405.952 462.342 401.686C462.23 396.273 463.365 385.381 462.263 380.513C461.848 377.82 464.943 367.896 462.46 364.158C457.824 357.179 462.51 353.95 464.542 347.004C466.209 341.303 461.608 333.516 464.817 327.943C468.252 323.301 473.118 322.724 476.797 317.06C476.91 314.847 476.794 312.155 476.757 309.904C481.465 305.72 482.396 305.225 484.717 299.464Z"/><path fill="#008FEB" d="M473.055 250.248C476.612 247.971 480.659 245.85 484.389 243.803L489.794 246.033C484.51 251.038 478.568 260.881 473.055 250.248Z"/><path fill="#016AB9" d="M484.717 299.464C485.698 296.457 487.323 294.545 489.148 291.947C488.585 295.02 486.958 297.673 485.227 300.262C485.544 303.462 486.419 313.887 485.241 316.529C484.787 313.085 485.33 304.89 484.717 299.464Z"/><defs><linearGradient id="gradient_2" gradientUnits="userSpaceOnUse" x1="706.38739" y1="384.07074" x2="313.39941" y2="504.16611"><stop offset="0" stop-color="#00286F"/><stop offset="1" stop-color="#0054AC"/></linearGradient></defs><path fill="url(#gradient_2)" d="M527.98 697.302C501.819 694.478 470.313 683.095 446.702 671.173C386.286 640.667 338.89 584.417 317.49 520.31C300.137 468.323 300.875 407.511 318.248 355.545C319.806 350.883 323.258 344.699 325.263 339.965C329.3 330.434 333.374 320.707 338.107 311.509C366.6 256.133 420.612 213.515 479.746 195.081C526.749 180.428 587.866 177.561 635.126 192.434C641.049 194.298 649.194 196.983 654.594 199.771C640.601 199.508 623.471 201.401 609.685 203.951C601.303 205.502 594.321 208.206 585.191 209.382C553.191 215.263 512.563 227.057 484.389 243.803C480.659 245.85 476.612 247.971 473.055 250.248C467.206 254.09 461.166 257.798 455.469 261.843C409.055 294.796 369.872 341.955 352.323 396.553C351.384 401.732 349.451 407.535 348.287 412.847C346.58 420.641 345.368 428.432 343.674 436.193L343.654 432.68C340.376 429.544 330.506 436.019 331.667 441.953C334.571 456.796 342.497 468.491 349.781 481.228C350.159 484.953 350.783 491.748 351.36 495.106C353.573 507.99 368.819 528.648 379.158 536.563C391.774 546.221 414.773 558.698 430.02 563.879C434.004 565.232 440.26 564.794 444.96 566.603C450.691 568.809 455.368 571.68 460.834 574.392C464.814 576.367 469.026 577.3 473.139 578.669C481.738 581.528 490.822 581.74 499.269 584.388C504.465 586.016 511.005 590.808 515.889 592.703C522.601 595.307 526.511 592.694 533.888 597.379C541.695 602.338 548.961 609.321 549.867 619.002C550.742 628.353 546.635 638.193 543.187 646.627C546.557 659.202 544.778 667.436 546.529 680.068C544.121 685.787 539.855 692.998 534.29 696.039C531.923 696.411 530.293 696.697 527.98 697.302Z"/><path fill="#00BCFD" d="M333.592 735.665C345.957 735.715 358.491 735.261 370.78 735.539C389.603 735.966 409.568 741.877 407.556 764.99C406.949 771.965 403.082 775.826 398.125 780.053C412.022 788.944 416.921 803.042 408.589 817.841C398.845 831.626 382.786 830.318 367.761 830.662C356.616 830.917 345.251 830.671 334.082 830.655C333.306 819.634 333.658 805.902 333.646 794.668L333.592 735.665ZM350.131 816.446C361.872 816.499 382.037 818.149 391.722 812.379C393.921 810.024 396.488 806.965 396.252 803.513C394.879 783.395 364.154 787.848 350.47 787.602C349.832 796.597 350.024 807.321 350.131 816.446ZM350.387 774.326C361.425 774.472 378.611 776.22 387.525 770.389C395.601 760.465 388.774 753.302 377.895 751.683C369.095 750.372 359.31 750.997 350.344 750.946L350.387 774.326Z"/><path fill="#00BCFD" d="M722.953 735.566C745.023 735.407 767.093 735.386 789.164 735.503L789.173 751.418C772.614 750.852 756.693 751.03 740.111 751.137C740.267 759.074 740.531 767.048 740.153 774.976C755.98 775.31 771.813 775.321 787.641 775.009L787.596 789.212L748.15 789.124L740.508 789.035L740.412 815.981C756.836 816.467 773.271 816.478 789.696 816.014L789.506 831.043C769.133 830.089 744.027 830.743 723.308 830.77C722.575 819.289 722.929 805.326 722.944 793.636L722.953 735.566Z"/><path fill="#00BCFD" d="M429.955 866.296C452.824 865.39 490.849 861.237 490.959 894.145C491.011 909.856 482.672 919.526 467.444 922.953C458.185 924.325 452.302 923.952 443.004 923.563L442.998 946.082L429.593 946.062C428.927 931.922 429.681 915.333 429.421 901.022C429.321 895.493 428.954 870.408 429.955 866.296ZM443.4 912.177C453.071 912.1 464.094 912.839 472.172 906.94C476.003 902.533 477.89 899.014 477.485 893.032C476.37 876.551 454.862 877.914 443.13 877.673C443.06 888.106 442.648 902.012 443.4 912.177Z"/><path fill="#00BCFD" d="M584.152 735.707C589.311 735.542 594.748 735.573 599.932 735.518L599.948 773.107C599.946 776.153 599.889 779.285 599.953 782.342C600.144 791.25 599.338 803.161 605.721 810.266C614.276 820.086 639.49 818.283 642.504 804.068C644.318 795.516 644.003 784.109 644.033 775.241C644.088 762.021 644.045 748.801 643.904 735.581C649.449 735.659 654.995 735.666 660.541 735.603L660.529 752.111C660.617 767.548 661.649 783.736 660.002 799.052C658.979 808.557 655.23 816.866 647.667 822.934C639.001 829.886 627.065 832.58 616.135 831.382C606.628 830.34 597.741 826.026 591.807 818.403C588.444 814.084 586.329 809.21 585.182 803.874C582.879 793.167 582.689 747.172 584.152 735.707Z"/><path fill="#00BCFD" d="M555.319 866.737C558.415 866.638 562.156 866.77 565.305 866.799C569.174 873.448 575.91 889.302 579.356 897.042C586.496 913.083 594.556 929.896 601.224 945.99L586.727 946.161C583.603 939.819 580.898 932.939 578.184 926.389L566.561 926.501C558.305 926.541 549.92 926.664 541.681 926.356C539.468 932.679 536.454 939.769 533.926 946.059C529.117 945.944 524.307 945.94 519.499 946.047C528.069 925.553 537.545 905.559 546.652 885.307C549.446 879.095 552.207 872.789 555.319 866.737ZM547.319 915.478L561.367 915.469L573.16 915.406C571.408 911.159 562.308 888.904 559.713 886.361L547.319 915.478Z"/><path fill="#00BCFD" d="M745.111 866.22L799.986 866.293L800.1 879.461C786.477 879.608 772.853 879.661 759.229 879.619C759.355 886.201 759.357 892.785 759.237 899.367C772.094 899.477 784.951 899.465 797.808 899.33L797.86 912.517L763.848 912.445L759.054 912.445L759.125 933.675C772.975 933.824 786.826 933.819 800.676 933.662C801.053 937.645 801.017 942.087 801.07 946.124C782.769 945.834 763.53 945.323 745.28 945.747C744.042 921.279 744.868 890.913 745.111 866.22Z"/><path fill="#00BCFD" d="M354.74 865.948C364.913 865.035 373.891 867.845 383.284 871.073L379.435 883.82C369.442 880.959 354.627 876.456 344.765 881.954C343.282 882.781 341.064 886.962 341.354 888.343C344.722 904.391 375.698 896.303 384.505 910.361C388.031 914.929 388.631 919.271 388.062 925.068C386.146 944.591 364.834 946.991 349.457 944.985C342.625 945.353 331.283 940.621 325.231 937.349C327.263 932.829 328.818 929.941 331.343 925.682C341.457 930.37 351.516 933.527 362.851 932.57C369.026 932.048 374.064 928.218 374.046 921.625C374.028 915.003 362.806 913.128 357.82 911.963C349.622 910.047 341.019 908.891 334.003 903.81C323.055 896.373 324.703 885.284 331.687 875.574C337.244 868.127 346.276 866.733 354.74 865.948Z"/><path fill="#00BCFD" d="M671.928 865.386C672.882 865.293 673.838 865.232 674.796 865.202C689.789 864.775 697.313 869.689 707.73 879.609C704.166 882.752 701.23 885.326 697.421 888.164C692.103 884.001 688.003 880.71 681.208 879.288C646.173 871.955 635 924.466 670.037 931.101C679.046 932.807 685.358 930.401 692.6 925.108L696.719 922.071C700.901 924.411 703.667 926.571 707.398 929.543C691.387 946.834 667.495 950.799 647.875 936.213C630.813 923.529 630.039 895.581 643.141 879.854C650.82 870.637 659.984 866.658 671.928 865.386Z"/><path fill="#00BCFD" d="M470.217 735.524L486.811 735.596C487.076 762.571 487.067 789.548 486.785 816.523C500.987 816.298 515.615 816.449 529.852 816.422L530.003 831.145C512.456 830.301 488.35 831.143 470.35 831.231C469.83 799.331 469.786 767.425 470.217 735.524Z"/><defs><linearGradient id="gradient_3" gradientUnits="userSpaceOnUse" x1="328.74414" y1="451.7522" x2="355.90207" y2="459.51172"><stop offset="0" stop-color="black" stop-opacity="0"/><stop offset="1" stop-color="#000106" stop-opacity="0.031372551"/></linearGradient></defs><path fill="url(#gradient_3)" d="M349.781 481.228C342.497 468.491 334.571 456.796 331.667 441.953C330.506 436.019 340.376 429.544 343.654 432.68L343.674 436.193C342.861 442.78 343.326 453.637 344.424 460.044C345.235 466.397 348.189 475.184 351.024 480.933L349.781 481.228Z"/><path fill="#003079" fill-opacity="0.91764706" d="M561.887 699.42C586.807 700.172 614.953 695.689 638.936 689.123C642.094 688.258 644.41 687.144 647.816 687.432C645.857 688.548 639.843 690.115 637.358 690.846C612.811 698.066 570.098 702.779 544.606 699.616L545.388 698.682L548.753 699.214C551.36 699.699 559.107 699.653 561.887 699.42Z"/><path fill="#050C2B" fill-opacity="0.87058824" d="M527.98 697.302C530.293 696.697 531.923 696.411 534.29 696.039L534.659 696.994C538.836 698.001 541.729 697.967 545.388 698.682L544.606 699.616C539.057 698.894 533.515 698.122 527.98 697.302Z"/><path fill="#003079" fill-opacity="0.96862745" d="M484.263 535.589C487.701 535.684 493.647 535.662 496.771 536.354C493.264 537.196 487.98 537.193 484.304 537.2L484.263 535.589Z"/><path fill="#050C2B" fill-opacity="0.60784316" d="M548.753 699.214C552.746 698.622 557.883 698.929 561.887 699.42C559.107 699.653 551.36 699.699 548.753 699.214Z"/></svg>